<?xml version="1.0" encoding="UTF-8"?>
<svg version="1.1" xmlns="http://www.w3.org/2000/svg" width="540" height="540">
<path d="M0 0 C0.68342278 -0.00235223 1.36684557 -0.00470446 2.07097813 -0.00712797 C4.37184046 -0.0138099 6.67264621 -0.01335999 8.97351742 -0.01294994 C10.63555024 -0.01624907 12.29758226 -0.01997475 13.95961326 -0.02409142 C18.53557614 -0.03411401 23.11152591 -0.03782864 27.68749821 -0.04048073 C32.61952372 -0.04438303 37.55153883 -0.05396145 42.4835577 -0.0626936 C54.39899027 -0.08246042 66.31442369 -0.09252463 78.22986856 -0.10142139 C83.84052407 -0.10580405 89.45117862 -0.11117093 95.06183338 -0.11641026 C113.71218228 -0.13342298 132.36253058 -0.14791717 151.01288605 -0.155159 C155.85327372 -0.1570689 160.69366138 -0.15898923 165.53404903 -0.16094494 C167.33864045 -0.16167055 167.33864045 -0.16167055 169.17968827 -0.16241082 C188.66860941 -0.17071116 208.15746917 -0.19604798 227.6463635 -0.22852562 C247.65341404 -0.26159501 267.66043339 -0.27960766 287.6675114 -0.28280324 C298.90144464 -0.28496847 310.13528838 -0.29371915 321.36919498 -0.31926441 C330.93657669 -0.34096976 340.50384715 -0.34902262 350.07125068 -0.33929763 C354.95159536 -0.33475244 359.83171052 -0.33665199 364.71202374 -0.35605907 C369.18380924 -0.37368779 373.65519774 -0.37269535 378.12698745 -0.35716178 C379.74078588 -0.35478527 381.35461178 -0.35911152 382.96836824 -0.37099043 C397.29368269 -0.46986911 408.60652769 2.29125069 419.38927364 12.09906483 C427.07435631 20.04271102 431.34511484 30.16966985 431.36333847 41.19952869 C431.36779631 42.45063151 431.37225416 43.70173433 431.37684709 44.99074936 C431.37675779 46.38167223 431.37656794 47.7725951 431.37628841 49.16351795 C431.37958799 50.63922218 431.38331375 52.1149255 431.38742989 53.59062767 C431.39744762 57.65158928 431.40116633 61.7125361 431.4038192 65.77350831 C431.40772299 70.15135625 431.41730136 74.52919249 431.42603207 78.90703297 C431.44579553 89.48319275 431.45586305 100.0593535 431.46475986 110.63552713 C431.46914341 115.6169548 431.47451009 120.59838141 431.47974873 125.57980824 C431.49676175 142.14132434 431.51125529 158.70283979 431.51849747 175.26436329 C431.52040734 179.56229115 431.52232768 183.86021901 431.52428341 188.15814686 C431.52476715 189.22636783 431.52525089 190.2945888 431.52574929 191.39518011 C431.53404721 208.69451022 431.5593798 225.99377113 431.59186409 243.29307103 C431.62494872 261.05705194 431.64294755 278.8209977 431.64614171 296.58500957 C431.64830562 306.55751174 431.65703684 316.52991302 431.68260288 326.50238514 C431.70432914 334.99669447 431.71235086 343.49087842 431.7026361 351.98521239 C431.69809684 356.31684482 431.69995574 360.64821866 431.71939754 364.97981548 C431.73706912 368.95143856 431.73599944 372.92261516 431.72050025 376.89424324 C431.7181302 378.32501958 431.7224163 379.75582716 431.7343289 381.18655586 C431.84529517 395.40349317 428.74672063 406.37670989 419.22911739 417.13422108 C411.66999436 424.43055251 401.09369978 429.29964767 390.54396534 429.23377991 C389.16718375 429.2290409 389.16718375 429.2290409 387.76258838 429.22420615 C386.76290251 429.21563458 385.76321665 429.20706301 384.73323727 429.1982317 C383.66431307 429.19329175 382.59538887 429.18835181 381.49407303 429.18326217 C379.14993282 429.17186386 376.80580309 429.15813175 374.46168804 429.14238644 C369.98261077 429.11237714 365.50351629 429.09089887 361.02438916 429.06988416 C360.35876127 429.06675427 359.69313338 429.06362438 359.00733495 429.06039965 C357.99694997 429.05566112 357.99694997 429.05566112 356.96615317 429.05082686 C354.8716322 429.04075137 352.7771156 429.02999918 350.68259883 429.01908624 C340.47506237 428.96660552 330.26761393 428.93692603 320.05995846 428.92079639 C319.32069212 428.91959819 318.58142579 428.91839999 317.81975745 428.91716548 C310.95422241 428.90618993 304.08868561 428.89671142 297.22314715 428.88815916 C292.51631424 428.88221545 287.80948312 428.87543883 283.10265255 428.86786366 C282.32094166 428.86661642 281.53923076 428.86536919 280.73383166 428.86408416 C268.0981511 428.84251875 255.46311313 428.77449698 242.82771526 428.69002285 C229.83107349 428.60428764 216.83506421 428.57238375 203.83814728 428.58861953 C195.83631838 428.59688325 187.83692617 428.56376339 179.83556642 428.47583947 C173.6819505 428.41266199 167.53045096 428.42436978 161.37667751 428.46260548 C158.86898515 428.46674562 156.36111449 428.44733298 153.85383892 428.40142727 C136.8554928 428.10826133 126.7573358 430.94600658 114.05412984 442.49468768 C111.62999411 444.67245446 109.0741132 446.58200885 106.44786739 448.50922108 C104.87400424 449.71632135 103.30106396 450.92462598 101.72911739 452.13422108 C94.35497356 457.78133495 86.91914306 463.33289729 79.42613888 468.82098866 C70.63119482 475.27849193 61.96954333 481.9103921 53.30943966 488.54706287 C52.62293331 489.07082508 51.93642696 489.59458729 51.22911739 490.13422108 C50.52134151 490.69729969 49.81356564 491.2603783 49.084342 491.84051991 C47.22911739 493.13422108 47.22911739 493.13422108 45.22911739 493.13422108 C45.22911739 472.01422108 45.22911739 450.89422108 45.22911739 429.13422108 C29.22432307 429.25255628 29.22432307 429.25255628 13.21984005 429.40448475 C11.19429152 429.41325712 9.16873765 429.42089927 7.14317989 429.42718983 C5.60053463 429.45021168 5.60053463 429.45021168 4.02672482 429.47369862 C-7.95793527 429.47798395 -19.23783699 425.79641743 -28.30213261 417.68890858 C-38.88913577 406.4824531 -41.38170977 394.16059874 -41.27881718 379.14288807 C-41.28343529 377.66027418 -41.28979428 376.17766488 -41.29772615 374.69506502 C-41.31431786 370.6520529 -41.30621986 366.60942179 -41.29378128 362.56640887 C-41.28469116 358.19413591 -41.29872007 353.82192621 -41.30970097 349.44966602 C-41.32744866 340.89668663 -41.32366296 332.34384797 -41.3120504 323.79086316 C-41.30300156 316.83710239 -41.30179835 309.88338095 -41.30614567 302.92961597 C-41.3067586 301.93835184 -41.30737153 300.94708771 -41.30800304 299.92578527 C-41.30928199 297.91178945 -41.31057885 295.89779363 -41.3118934 293.88379782 C-41.32328822 275.01698686 -41.31020275 256.15025375 -41.28869194 237.28345555 C-41.27082196 221.10948555 -41.27392638 204.93563041 -41.29236698 188.76166248 C-41.31379311 169.96044573 -41.32218968 151.15929715 -41.30991793 132.3580699 C-41.30864379 130.35165533 -41.3073863 128.34524076 -41.30614567 126.33882618 C-41.30552857 125.35173899 -41.30491146 124.3646518 -41.30427566 123.34765288 C-41.30082799 116.40559686 -41.30663853 109.46358422 -41.31606388 102.52153492 C-41.32730461 94.05667628 -41.32420028 85.59196593 -41.30294091 77.12712419 C-41.29245836 72.81165337 -41.28826071 68.49642942 -41.30153751 64.18096066 C-41.31352554 60.22443519 -41.3067944 56.26838362 -41.28562731 52.31190068 C-41.28118821 50.88675719 -41.28336639 49.461573 -41.29313046 48.03645605 C-41.38135718 34.08010205 -38.40614563 22.36598902 -28.77088261 11.97797108 C-20.60918476 4.16606028 -11.25096664 0.01649743 0 0 Z " fill="#EB1E24" transform="translate(74.77088260650635,29.865778923034668)"/>
<path d="M0 0 C0.68342278 -0.00235223 1.36684557 -0.00470446 2.07097813 -0.00712797 C4.37184046 -0.0138099 6.67264621 -0.01335999 8.97351742 -0.01294994 C10.63555024 -0.01624907 12.29758226 -0.01997475 13.95961326 -0.02409142 C18.53557614 -0.03411401 23.11152591 -0.03782864 27.68749821 -0.04048073 C32.61952372 -0.04438303 37.55153883 -0.05396145 42.4835577 -0.0626936 C54.39899027 -0.08246042 66.31442369 -0.09252463 78.22986856 -0.10142139 C83.84052407 -0.10580405 89.45117862 -0.11117093 95.06183338 -0.11641026 C113.71218228 -0.13342298 132.36253058 -0.14791717 151.01288605 -0.155159 C155.85327372 -0.1570689 160.69366138 -0.15898923 165.53404903 -0.16094494 C167.33864045 -0.16167055 167.33864045 -0.16167055 169.17968827 -0.16241082 C188.66860941 -0.17071116 208.15746917 -0.19604798 227.6463635 -0.22852562 C247.65341404 -0.26159501 267.66043339 -0.27960766 287.6675114 -0.28280324 C298.90144464 -0.28496847 310.13528838 -0.29371915 321.36919498 -0.31926441 C330.93657669 -0.34096976 340.50384715 -0.34902262 350.07125068 -0.33929763 C354.95159536 -0.33475244 359.83171052 -0.33665199 364.71202374 -0.35605907 C369.18380924 -0.37368779 373.65519774 -0.37269535 378.12698745 -0.35716178 C379.74078588 -0.35478527 381.35461178 -0.35911152 382.96836824 -0.37099043 C397.29368269 -0.46986911 408.60652769 2.29125069 419.38927364 12.09906483 C427.07435631 20.04271102 431.34511484 30.16966985 431.36333847 41.19952869 C431.36779631 42.45063151 431.37225416 43.70173433 431.37684709 44.99074936 C431.37675779 46.38167223 431.37656794 47.7725951 431.37628841 49.16351795 C431.37958799 50.63922218 431.38331375 52.1149255 431.38742989 53.59062767 C431.39744762 57.65158928 431.40116633 61.7125361 431.4038192 65.77350831 C431.40772299 70.15135625 431.41730136 74.52919249 431.42603207 78.90703297 C431.44579553 89.48319275 431.45586305 100.0593535 431.46475986 110.63552713 C431.46914341 115.6169548 431.47451009 120.59838141 431.47974873 125.57980824 C431.49676175 142.14132434 431.51125529 158.70283979 431.51849747 175.26436329 C431.52040734 179.56229115 431.52232768 183.86021901 431.52428341 188.15814686 C431.52476715 189.22636783 431.52525089 190.2945888 431.52574929 191.39518011 C431.53404721 208.69451022 431.5593798 225.99377113 431.59186409 243.29307103 C431.62494872 261.05705194 431.64294755 278.8209977 431.64614171 296.58500957 C431.64830562 306.55751174 431.65703684 316.52991302 431.68260288 326.50238514 C431.70432914 334.99669447 431.71235086 343.49087842 431.7026361 351.98521239 C431.69809684 356.31684482 431.69995574 360.64821866 431.71939754 364.97981548 C431.73706912 368.95143856 431.73599944 372.92261516 431.72050025 376.89424324 C431.7181302 378.32501958 431.7224163 379.75582716 431.7343289 381.18655586 C431.84529517 395.40349317 428.74672063 406.37670989 419.22911739 417.13422108 C411.66999436 424.43055251 401.09369978 429.29964767 390.54396534 429.23377991 C389.16718375 429.2290409 389.16718375 429.2290409 387.76258838 429.22420615 C386.76290251 429.21563458 385.76321665 429.20706301 384.73323727 429.1982317 C383.66431307 429.19329175 382.59538887 429.18835181 381.49407303 429.18326217 C379.14993282 429.17186386 376.80580309 429.15813175 374.46168804 429.14238644 C369.98261077 429.11237714 365.50351629 429.09089887 361.02438916 429.06988416 C360.35876127 429.06675427 359.69313338 429.06362438 359.00733495 429.06039965 C357.99694997 429.05566112 357.99694997 429.05566112 356.96615317 429.05082686 C354.8716322 429.04075137 352.7771156 429.02999918 350.68259883 429.01908624 C340.47506237 428.96660552 330.26761393 428.93692603 320.05995846 428.92079639 C319.32069212 428.91959819 318.58142579 428.91839999 317.81975745 428.91716548 C310.95422241 428.90618993 304.08868561 428.89671142 297.22314715 428.88815916 C292.51631424 428.88221545 287.80948312 428.87543883 283.10265255 428.86786366 C282.32094166 428.86661642 281.53923076 428.86536919 280.73383166 428.86408416 C268.0981511 428.84251875 255.46311313 428.77449698 242.82771526 428.69002285 C229.83107349 428.60428764 216.83506421 428.57238375 203.83814728 428.58861953 C195.83631838 428.59688325 187.83692617 428.56376339 179.83556642 428.47583947 C173.6819505 428.41266199 167.53045096 428.42436978 161.37667751 428.46260548 C158.86898515 428.46674562 156.36111449 428.44733298 153.85383892 428.40142727 C136.8554928 428.10826133 126.7573358 430.94600658 114.05412984 442.49468768 C111.62999411 444.67245446 109.0741132 446.58200885 106.44786739 448.50922108 C104.87400424 449.71632135 103.30106396 450.92462598 101.72911739 452.13422108 C94.35497356 457.78133495 86.91914306 463.33289729 79.42613888 468.82098866 C70.63119482 475.27849193 61.96954333 481.9103921 53.30943966 488.54706287 C52.62293331 489.07082508 51.93642696 489.59458729 51.22911739 490.13422108 C50.52134151 490.69729969 49.81356564 491.2603783 49.084342 491.84051991 C47.22911739 493.13422108 47.22911739 493.13422108 45.22911739 493.13422108 C45.22911739 472.01422108 45.22911739 450.89422108 45.22911739 429.13422108 C29.22432307 429.25255628 29.22432307 429.25255628 13.21984005 429.40448475 C11.19429152 429.41325712 9.16873765 429.42089927 7.14317989 429.42718983 C5.60053463 429.45021168 5.60053463 429.45021168 4.02672482 429.47369862 C-7.95793527 429.47798395 -19.23783699 425.79641743 -28.30213261 417.68890858 C-38.88913577 406.4824531 -41.38170977 394.16059874 -41.27881718 379.14288807 C-41.28343529 377.66027418 -41.28979428 376.17766488 -41.29772615 374.69506502 C-41.31431786 370.6520529 -41.30621986 366.60942179 -41.29378128 362.56640887 C-41.28469116 358.19413591 -41.29872007 353.82192621 -41.30970097 349.44966602 C-41.32744866 340.89668663 -41.32366296 332.34384797 -41.3120504 323.79086316 C-41.30300156 316.83710239 -41.30179835 309.88338095 -41.30614567 302.92961597 C-41.3067586 301.93835184 -41.30737153 300.94708771 -41.30800304 299.92578527 C-41.30928199 297.91178945 -41.31057885 295.89779363 -41.3118934 293.88379782 C-41.32328822 275.01698686 -41.31020275 256.15025375 -41.28869194 237.28345555 C-41.27082196 221.10948555 -41.27392638 204.93563041 -41.29236698 188.76166248 C-41.31379311 169.96044573 -41.32218968 151.15929715 -41.30991793 132.3580699 C-41.30864379 130.35165533 -41.3073863 128.34524076 -41.30614567 126.33882618 C-41.30552857 125.35173899 -41.30491146 124.3646518 -41.30427566 123.34765288 C-41.30082799 116.40559686 -41.30663853 109.46358422 -41.31606388 102.52153492 C-41.32730461 94.05667628 -41.32420028 85.59196593 -41.30294091 77.12712419 C-41.29245836 72.81165337 -41.28826071 68.49642942 -41.30153751 64.18096066 C-41.31352554 60.22443519 -41.3067944 56.26838362 -41.28562731 52.31190068 C-41.28118821 50.88675719 -41.28336639 49.461573 -41.29313046 48.03645605 C-41.38135718 34.08010205 -38.40614563 22.36598902 -28.77088261 11.97797108 C-20.60918476 4.16606028 -11.25096664 0.01649743 0 0 Z M8.22911739 58.13422108 C7.49126859 60.79957746 7.49126859 60.79957746 7.59991169 63.68620014 C7.58687295 64.79730829 7.57383422 65.90841643 7.56040037 67.05319452 C7.57155398 68.26865033 7.58270758 69.48410613 7.59419918 70.73639393 C7.58249925 72.67923952 7.58249925 72.67923952 7.57056296 74.66133451 C7.54967687 78.25490385 7.56001217 81.84780987 7.57549405 85.44138169 C7.58679668 89.31740882 7.56935031 93.19332107 7.55559444 97.06932545 C7.53334576 104.66175274 7.53817041 112.25393308 7.55265765 119.8463701 C7.56394351 126.01613766 7.56548363 132.18583594 7.56003857 138.35561085 C7.5592724 139.2332793 7.55850624 140.11094775 7.55771685 141.01521221 C7.55611825 142.7981049 7.55449718 144.58099758 7.5528539 146.36389023 C7.53859162 163.08732394 7.5549966 179.81062068 7.58185573 196.53403193 C7.60419496 210.88764666 7.60031496 225.24105921 7.57726192 239.5946703 C7.55051235 256.25770857 7.53996496 272.92062675 7.55532324 289.58368349 C7.55691601 291.36006608 7.55848786 293.13644868 7.56003857 294.91283131 C7.56080994 295.78687576 7.56158132 296.66092022 7.56237607 297.56145087 C7.56669561 303.72475972 7.55940108 309.88799249 7.5476408 316.05128956 C7.5336266 323.56099148 7.53739285 331.07043206 7.56404452 338.58010399 C7.57719746 342.4127088 7.58231044 346.24487765 7.56579876 350.07747936 C7.54818181 354.22938288 7.56919641 358.38018297 7.59419918 362.53204823 C7.58304557 363.74750403 7.57189196 364.96295983 7.56040037 366.21524763 C7.5734391 367.32635578 7.58647784 368.43746392 7.59991169 369.58224201 C7.60072345 370.5406038 7.60153521 371.4989656 7.60237157 372.48636866 C8.50177956 376.28615404 10.16492249 377.77844789 13.22911739 380.13422108 C16.20596687 380.87604133 16.20596687 380.87604133 19.48387814 380.76342678 C20.75173908 380.77646552 22.01960003 380.78950425 23.325881 380.8029381 C24.73047901 380.79212811 26.13507344 380.78084483 27.53966427 380.76913929 C29.03360348 380.77490014 30.52753561 380.78284102 32.0214529 380.79277551 C36.1280653 380.8136775 40.23409787 380.80331875 44.34071255 380.78784442 C48.76888647 380.77654843 53.1969595 380.79398489 57.62511349 380.80774403 C66.30038694 380.82999974 74.97544433 380.82516488 83.65072632 380.81068082 C90.7000681 380.79939775 97.74934925 380.79785364 104.79869747 380.8032999 C105.80125718 380.80406607 106.80381688 380.80483223 107.83675718 380.80562162 C109.87331488 380.80722021 111.90987255 380.80884128 113.94643021 380.81048457 C133.05193784 380.82474891 152.1573256 380.80833861 171.26281357 380.78148274 C187.66309989 380.75914335 204.06320927 380.76302329 220.46349239 380.78607655 C239.49972352 380.81282245 258.53584953 380.82337555 277.57209682 380.80801523 C279.60124364 380.80642245 281.63039047 380.8048506 283.65953732 380.8032999 C284.65796673 380.80252853 285.65639615 380.80175715 286.68508101 380.8009624 C293.72753608 380.79664177 300.76992458 380.80393976 307.81236935 380.81569767 C316.39254488 380.82970778 324.97249165 380.82595414 333.55264091 380.79929395 C337.93204943 380.78613564 342.31107628 380.78103747 346.69048214 380.79753971 C350.69759446 380.81241095 354.70397043 380.80429864 358.7110157 380.77765195 C360.16248596 380.77205486 361.61401811 380.77493499 363.06544876 380.78703089 C365.03504211 380.80218918 367.00480912 380.78368169 368.97435665 380.76342678 C370.06941776 380.76261502 371.16447887 380.76180326 372.29272366 380.7609669 C376.28541434 379.90876436 377.77188171 378.34549742 380.22911739 375.13422108 C380.9669662 372.4688647 380.9669662 372.4688647 380.8583231 369.58224201 C380.87136183 368.47113387 380.88440057 367.36002572 380.89783442 366.21524763 C380.88668081 364.99979183 380.8755272 363.78433602 380.86403561 362.53204823 C380.87183556 361.23681783 380.87963551 359.94158744 380.88767183 358.60710764 C380.90855792 355.0135383 380.89822262 351.42063228 380.88274074 347.82706046 C380.87143811 343.95103333 380.88888448 340.07512109 380.90264034 336.19911671 C380.92488903 328.60668942 380.92006438 321.01450908 380.90557714 313.42207205 C380.89429128 307.2523045 380.89275116 301.08260622 380.89819622 294.91283131 C380.89896239 294.03516286 380.89972855 293.15749441 380.90051793 292.25322995 C380.90211654 290.47033725 380.9037376 288.68744458 380.90538089 286.90455192 C380.91964316 270.18111821 380.90323818 253.45782147 380.87637906 236.73441023 C380.85403983 222.3807955 380.85791982 208.02738294 380.88097286 193.67377186 C380.90772244 177.01073359 380.91826982 160.34781541 380.90291154 143.68475866 C380.90131878 141.90837608 380.89974692 140.13199347 380.89819622 138.35561085 C380.89742484 137.48156639 380.89665347 136.60752194 380.89585871 135.70699129 C380.89153918 129.54368243 380.89883371 123.38044967 380.91059399 117.2171526 C380.92460819 109.70745067 380.92084194 102.19801009 380.89419027 94.68833816 C380.88103732 90.85573336 380.87592435 87.0235645 380.89243603 83.19096279 C380.91005298 79.03905927 380.88903838 74.88825918 380.86403561 70.73639393 C380.87518921 69.52093812 380.88634282 68.30548232 380.89783442 67.05319452 C380.87827632 65.3865323 380.87827632 65.3865323 380.8583231 63.68620014 C380.85751134 62.72783835 380.85669957 61.76947656 380.85586321 60.7820735 C379.95645523 56.98228811 378.29331229 55.48999426 375.22911739 53.13422108 C372.25226792 52.39240082 372.25226792 52.39240082 368.97435665 52.50501537 C367.7064957 52.49197664 366.43863476 52.4789379 365.13235378 52.46550405 C363.72775578 52.47631405 362.32316135 52.48759732 360.91857052 52.49930286 C359.42463131 52.49354201 357.93069917 52.48560113 356.43678188 52.47566664 C352.33016949 52.45476465 348.22413692 52.46512341 344.11752224 52.48059773 C339.68934832 52.49189372 335.26127529 52.47445726 330.8331213 52.46069813 C322.15784785 52.43844241 313.48279045 52.44327728 304.80750847 52.45776133 C297.75816668 52.46904441 290.70888553 52.47058851 283.65953732 52.46514225 C282.65697761 52.46437608 281.65441791 52.46360992 280.6214776 52.46282054 C278.58491991 52.46122194 276.54836224 52.45960088 274.51180458 52.45795758 C255.40629695 52.44369324 236.30090919 52.46010355 217.19542122 52.48695941 C200.7951349 52.5092988 184.39502552 52.50541887 167.99474239 52.48236561 C148.95851127 52.4556197 129.92238525 52.4450666 110.88613796 52.46042693 C108.85699115 52.4620197 106.82784432 52.46359156 104.79869747 52.46514225 C103.30105335 52.46629932 103.30105335 52.46629932 101.77315378 52.46747976 C94.73069871 52.47180039 87.6883102 52.46450239 80.64586544 52.45274448 C72.06568991 52.43873438 63.48574313 52.44248801 54.90559387 52.4691482 C50.52618535 52.48230652 46.14715851 52.48740469 41.76775265 52.47090244 C37.76064032 52.4560312 33.75426435 52.46414352 29.74721909 52.4907902 C28.29574882 52.49638729 26.84421668 52.49350716 25.39278603 52.48141126 C23.42319268 52.46625298 21.45342567 52.48476046 19.48387814 52.50501537 C18.38881702 52.50582713 17.29375591 52.5066389 16.16551113 52.50747526 C12.17282045 53.35967779 10.68635308 54.92294474 8.22911739 58.13422108 Z " fill="#EA1B21" transform="translate(74.77088260650635,29.865778923034668)"/>
<path d="M0 0 C1.26786095 -0.01303874 2.53572189 -0.02607747 3.84200287 -0.03951132 C5.24660088 -0.02870132 6.6511953 -0.01741805 8.05578613 -0.00571251 C9.54972535 -0.01147336 11.04365748 -0.01941424 12.53757477 -0.02934873 C16.64418717 -0.05025072 20.75021974 -0.03989197 24.85683441 -0.02441764 C29.28500833 -0.01312165 33.71308136 -0.03055811 38.14123535 -0.04431725 C46.8165088 -0.06657296 55.4915662 -0.0617381 64.16684818 -0.04725404 C71.21618997 -0.03597097 78.26547112 -0.03442686 85.31481934 -0.03987312 C86.31737904 -0.04063929 87.31993875 -0.04140545 88.35287905 -0.04219484 C90.38943674 -0.04379343 92.42599441 -0.0454145 94.46255207 -0.04705779 C113.5680597 -0.06132213 132.67344746 -0.04491182 151.77893543 -0.01805596 C168.17922175 0.00428343 184.57933113 0.00040349 200.97961426 -0.02264977 C220.01584539 -0.04939567 239.0519714 -0.05994877 258.08821869 -0.04458845 C260.1173655 -0.04299567 262.14651233 -0.04142382 264.17565918 -0.03987312 C265.67330331 -0.03871606 265.67330331 -0.03871606 267.20120287 -0.03753562 C274.24365794 -0.03321499 281.28604645 -0.04051298 288.32849121 -0.05227089 C296.90866675 -0.066281 305.48861352 -0.06252736 314.06876278 -0.03586717 C318.4481713 -0.02270886 322.82719814 -0.01761068 327.206604 -0.03411293 C331.21371633 -0.04898417 335.2200923 -0.04087186 339.22713757 -0.01422517 C340.67860783 -0.00862808 342.13013997 -0.01150821 343.58157063 -0.02360411 C345.55116397 -0.0387624 347.52093099 -0.02025491 349.49047852 0 C351.13307018 0.00121764 351.13307018 0.00121764 352.80884552 0.00245988 C356.8015362 0.85466242 358.28800357 2.41792936 360.74523926 5.6292057 C361.37198508 8.27705812 361.37198508 8.27705812 361.37444496 11.18118477 C361.39400307 12.84784699 361.39400307 12.84784699 361.41395628 14.54817915 C361.40280268 15.76363495 361.39164907 16.97909076 361.38015747 18.23137856 C361.38795742 19.52660895 361.39575738 20.82183934 361.40379369 22.15631914 C361.42467978 25.74988848 361.41434449 29.3427945 361.3988626 32.93636632 C361.38755997 36.81239345 361.40500635 40.68830569 361.41876221 44.56431007 C361.44101089 52.15673737 361.43618624 59.74891771 361.421699 67.34135473 C361.41041314 73.51112228 361.40887302 79.68082056 361.41431808 85.85059547 C361.41508425 86.72826392 361.41585042 87.60593237 361.4166398 88.51019683 C361.4182384 90.29308953 361.41985947 92.0759822 361.42150275 93.85887486 C361.43576503 110.58230857 361.41936005 127.30560531 361.39250092 144.02901655 C361.37016169 158.38263128 361.37404169 172.73604384 361.39709473 187.08965492 C361.4238443 203.7526932 361.43439169 220.41561137 361.41903341 237.07866812 C361.41744064 238.8550507 361.41586879 240.63143331 361.41431808 242.40781593 C361.41354671 243.28186039 361.41277533 244.15590484 361.41198058 245.0564355 C361.40766104 251.21974435 361.41495557 257.38297711 361.42671585 263.54627419 C361.44073005 271.05597611 361.43696381 278.56541669 361.41031213 286.07508862 C361.39715919 289.90769342 361.39204621 293.73986228 361.40855789 297.57246399 C361.42617484 301.72436751 361.40516025 305.8751676 361.38015747 310.02703285 C361.39131108 311.24248866 361.40246469 312.45794446 361.41395628 313.71023226 C361.40091755 314.8213404 361.38787881 315.93244855 361.37444496 317.07722664 C361.3736332 318.03558843 361.37282144 318.99395022 361.37198508 319.98135328 C360.47257709 323.78113867 358.80943416 325.27343252 355.74523926 327.6292057 C352.80884552 328.25595152 352.80884552 328.25595152 349.49047852 328.25841141 C347.5886871 328.27796951 347.5886871 328.27796951 345.64847565 328.29792273 C344.24387764 328.28711273 342.83928321 328.27582946 341.43469238 328.26412392 C339.94075317 328.26988477 338.44682104 328.27782565 336.95290375 328.28776014 C332.84629135 328.30866213 328.74025878 328.29830337 324.6336441 328.28282905 C320.20547018 328.27153306 315.77739715 328.28896952 311.34924316 328.30272865 C302.67396971 328.32498437 293.99891232 328.3201495 285.32363033 328.30566545 C278.27428855 328.29438237 271.2250074 328.29283827 264.17565918 328.29828453 C263.17309947 328.2990507 262.17053977 328.29981686 261.13759947 328.30060624 C259.10104178 328.30220484 257.0644841 328.3038259 255.02792645 328.3054692 C235.92241881 328.31973354 216.81703106 328.30332323 197.71154308 328.27646737 C181.31125676 328.25412798 164.91114738 328.25800791 148.51086426 328.28106117 C129.47463313 328.30780708 110.43850712 328.31836018 91.40225983 328.30299985 C89.37311301 328.30140708 87.34396618 328.29983522 85.31481934 328.29828453 C84.31638992 328.29751315 83.3179605 328.29674178 82.28927565 328.29594702 C75.24682057 328.29162639 68.20443207 328.29892439 61.1619873 328.3106823 C52.58181177 328.3246924 44.001865 328.32093877 35.42171574 328.29427858 C31.04230722 328.28112026 26.66328037 328.27602209 22.28387451 328.29252434 C18.27676219 328.30739558 14.27038622 328.29928326 10.26334095 328.27263658 C8.81187069 328.26703949 7.36033854 328.26991962 5.90890789 328.28201552 C3.93931454 328.29717381 1.96954753 328.27866632 0 328.25841141 C-1.09506111 328.25759965 -2.19012222 328.25678788 -3.318367 328.25595152 C-7.31105768 327.40374899 -8.79752506 325.84048204 -11.25476074 322.6292057 C-11.88150656 319.98135328 -11.88150656 319.98135328 -11.88396645 317.07722664 C-11.89700518 315.96611849 -11.91004392 314.85501035 -11.92347777 313.71023226 C-11.91232416 312.49477645 -11.90117055 311.27932065 -11.88967896 310.02703285 C-11.89747891 308.73180246 -11.90527886 307.43657207 -11.91331518 306.10209227 C-11.93420127 302.50852293 -11.92386597 298.91561691 -11.90838408 295.32204509 C-11.89708146 291.44601796 -11.91452783 287.57010572 -11.92828369 283.69410133 C-11.95053238 276.10167404 -11.94570773 268.5094937 -11.93122049 260.91705668 C-11.91993463 254.74728912 -11.91839451 248.57759085 -11.92383957 242.40781593 C-11.92460573 241.53014748 -11.9253719 240.65247904 -11.92616128 239.74821457 C-11.92775989 237.96532188 -11.92938095 236.1824292 -11.93102424 234.39953655 C-11.94528651 217.67610284 -11.92888153 200.9528061 -11.90202241 184.22939485 C-11.87968318 169.87578012 -11.88356317 155.52236757 -11.90661621 141.16875648 C-11.93336579 124.50571821 -11.94391317 107.84280003 -11.92855489 91.17974329 C-11.92696212 89.4033607 -11.92539027 87.6269781 -11.92383957 85.85059547 C-11.92306819 84.97655102 -11.92229681 84.10250656 -11.92150206 83.20197591 C-11.91718253 77.03866706 -11.92447706 70.87543429 -11.93623734 64.71213722 C-11.95025154 57.2024353 -11.94648529 49.69299472 -11.91983362 42.18332279 C-11.90668067 38.35071798 -11.9015677 34.51854913 -11.91807938 30.68594742 C-11.93569632 26.5340439 -11.91468173 22.38324381 -11.88967896 18.23137856 C-11.90083256 17.01592275 -11.91198617 15.80046695 -11.92347777 14.54817915 C-11.91043903 13.437071 -11.8974003 12.32596286 -11.88396645 11.18118477 C-11.88315468 10.22282298 -11.88234292 9.26446118 -11.88150656 8.27705812 C-10.37966303 1.93212544 -6.07561315 0.00450381 0 0 Z M5.74523926 17.6292057 C5.74523926 114.3192057 5.74523926 211.0092057 5.74523926 310.6292057 C40.39523926 310.6292057 75.04523926 310.6292057 110.74523926 310.6292057 C109.98655622 302.68101343 109.98655622 302.68101343 108.76477051 294.8792057 C108.57326416 293.87196449 108.38175781 292.86472328 108.18444824 291.82695961 C107.97763428 290.77170082 107.77082031 289.71644203 107.55773926 288.6292057 C107.33996826 287.5056266 107.12219727 286.3820475 106.89782715 285.22442055 C105.09760776 276.09051534 103.04125971 267.02684625 100.90881348 257.96563148 C99.01762549 249.90704903 97.33061443 241.82682761 95.74523926 233.70342445 C94.6108773 227.89673626 93.39662166 222.10720411 92.18273926 216.3167057 C90.55294478 208.5342215 88.95151482 200.74831611 87.42102051 192.94561195 C86.91552662 190.46489338 86.38143962 187.99940195 85.8223877 185.53081703 C84.73838704 180.66563929 83.77525164 175.78173324 82.83508301 170.8870182 C82.48160669 169.06148976 82.12808991 167.23596915 81.77453613 165.4104557 C81.22525067 162.56651477 80.67662249 159.72244921 80.12878418 156.87822914 C79.59509929 154.1099907 79.05897872 151.34223245 78.52258301 148.5745182 C78.35902817 147.7214106 78.19547333 146.86830299 78.02696228 145.98934364 C77.79650963 144.80198112 77.79650963 144.80198112 77.56140137 143.59063148 C77.36060219 142.54880211 77.36060219 142.54880211 77.15574646 141.48592567 C76.7316818 139.41524997 76.7316818 139.41524997 75.74523926 136.6292057 C75.51103328 132.75831236 75.5600554 128.88143291 75.55773926 125.0042057 C75.54549316 123.94846352 75.53324707 122.89272133 75.52062988 121.80498695 C75.49238426 106.60884118 80.43674638 92.15816045 90.99523926 80.8792057 C100.96917617 71.60366262 113.57781295 67.84319774 126.74523926 65.6292057 C115.7734811 58.31470027 96.2684255 61.4359696 83.74523926 61.6292057 C84.40148926 58.24248695 84.40148926 58.24248695 85.74523926 54.6292057 C88.27648926 53.35967445 88.27648926 53.35967445 91.24523926 52.8167057 C95.45951855 52.13250382 95.45951855 52.13250382 98.74523926 49.6292057 C96.52048827 47.40445472 95.14788182 46.97576225 92.18273926 46.0667057 C87.84246148 44.72642793 87.84246148 44.72642793 86.74523926 43.6292057 C96.78968385 38.60698341 116.90683372 41.89275843 127.33508301 45.30498695 C128.46043457 45.74197914 129.58578613 46.17897133 130.74523926 46.6292057 C131.40024414 46.87590004 132.05524902 47.12259438 132.73010254 47.3767643 C143.35749278 51.4377586 152.39093655 56.6777298 160.80773926 64.4417057 C163.62083333 66.53656299 165.19952921 67.17763043 168.49523926 68.0667057 C182.19232478 71.76862071 190.80777483 81.19176618 197.79992676 93.07842445 C208.1088496 111.59440103 216.74744444 132.91718546 213.29211426 154.45342445 C211.1097329 157.52308713 209.04071964 157.68490399 205.42004395 158.30596352 C199.56591544 159.01341753 193.69069437 159.35689531 187.80383301 159.66436195 C173.88846999 160.60868236 161.39745399 166.41550479 151.74523926 176.6292057 C149.39562389 180.52173516 149.21818685 184.17854092 149.74523926 188.6292057 C151.88964849 195.41983494 155.843092 200.69444087 161.74523926 204.6292057 C161.86390542 207.49849268 161.82328777 210.20832148 161.68273926 213.0667057 C161.29239138 230.0484516 166.38665751 245.67849404 171.74523926 261.6292057 C170.53287598 261.70268227 170.53287598 261.70268227 169.29602051 261.7776432 C167.69307129 261.88979164 167.69307129 261.88979164 166.05773926 262.0042057 C165.00199707 262.07381508 163.94625488 262.14342445 162.85852051 262.2151432 C159.77055034 262.47993601 159.77055034 262.47993601 157.22570801 263.7307682 C152.63278308 265.39434731 148.95792641 263.82296074 144.72180176 261.85186195 C142.53972282 260.78256421 140.36945429 259.6913111 138.19836426 258.59990883 C131.61161598 255.37192659 125.22142074 253.08216803 117.74523926 253.6292057 C115.01395318 256.36049178 116.55954356 264.64495387 116.55773926 268.3167057 C116.54549316 269.57805336 116.53324707 270.83940102 116.52062988 272.13897133 C116.50379121 283.10094644 116.55549521 294.72151252 121.74523926 304.6292057 C127.34074675 305.14263485 130.76849801 303.49505742 135.55773926 300.9417057 C136.27204102 300.57883461 136.98634277 300.21596352 137.72229004 299.84209633 C141.37202051 297.97026918 144.74226128 295.95954041 148.12023926 293.6292057 C153.08473006 290.72363163 158.61931659 291.31792996 164.18811035 291.6370182 C169.59090227 291.89936925 172.90432335 291.06804688 177.74523926 288.6292057 C180.91269204 287.57338811 181.44069765 287.52769183 184.74523926 288.6292057 C185.88024902 290.22393227 185.88024902 290.22393227 186.93664551 292.2698307 C187.32400879 293.01104164 187.71137207 293.75225258 188.11047363 294.51592445 C188.70312012 295.68574867 188.70312012 295.68574867 189.30773926 296.8792057 C189.7067041 297.64361977 190.10566895 298.40803383 190.51672363 299.19561195 C192.47191495 302.9754309 194.15800923 306.66113064 195.74523926 310.6292057 C244.58523926 310.6292057 293.42523926 310.6292057 343.74523926 310.6292057 C343.74523926 213.9392057 343.74523926 117.2492057 343.74523926 17.6292057 C232.20523926 17.6292057 120.66523926 17.6292057 5.74523926 17.6292057 Z " fill="#FEFEFE" transform="translate(94.2547607421875,82.37079429626465)"/>
<path d="M0 0 C1.03640625 -0.0309375 1.03640625 -0.0309375 2.09375 -0.0625 C7.19852042 -0.10088173 10.67946746 0.97669847 15.25 3.25 C15.88610568 6.43052838 16.06465188 9.08998093 15.25 12.25 C12.35164573 15.07157668 8.89667583 16.56943951 5.25 18.25 C4.21488281 18.76433594 3.17976563 19.27867187 2.11328125 19.80859375 C-4.05457255 22.79207912 -10.26271198 25.25040503 -16.80078125 27.29296875 C-21.98232401 28.97439653 -27.0245304 30.94044814 -32.03515625 33.07421875 C-44.605899 38.12082855 -56.08833222 38.87119308 -69.43969727 38.25463867 C-71.35866821 38.18079956 -71.35866821 38.18079956 -73.31640625 38.10546875 C-74.46052979 38.03996826 -75.60465332 37.97446777 -76.78344727 37.90698242 C-79.83946683 38.00919382 -79.83946683 38.00919382 -82.11694336 40.01293945 C-84.10812012 42.74057477 -84.37999121 44.93542165 -84.19921875 48.2890625 C-83.19706936 52.66366246 -79.7230298 54.60922428 -76.1875 56.9375 C-59.78138575 63.20165271 -38.81029109 60.97291707 -22.26171875 55.98046875 C-14.84671337 53.82400529 -7.45920753 52.76052651 0.25 53.25 C2.25 55.25 2.25 55.25 2.375 58 C0.38736799 63.74204802 -4.2660122 66.01324658 -9.52734375 68.6328125 C-32.63632168 78.77525485 -55.12218285 77.4443674 -78.75 70.25 C-79.4925 70.02570313 -80.235 69.80140625 -81 69.5703125 C-93.78711016 65.5058382 -105.63421136 61.26087814 -112.75 49.25 C-114.42684522 44.03653576 -114.63532419 39.13612544 -112.3125 34.1875 C-102.61834986 23.07469374 -90.50938103 17.52168581 -76.04296875 16.4609375 C-74.99753906 16.39132813 -73.95210938 16.32171875 -72.875 16.25 C-61.09431094 16.24553956 -61.09431094 16.24553956 -50.75 12.25 C-48.75714664 11.80039284 -46.75500269 11.39188689 -44.75 11 C-33.1882424 8.59080843 -21.90951778 5.09810958 -10.75 1.25 C-7.12762495 0.04254165 -3.7729405 0.02753971 0 0 Z " fill="#FDD106" transform="translate(357.75,225.75)"/>
<path d="M0 0 C5.73043935 6.71844614 4.18340869 17.17714979 4.1875 25.4375 C4.19974609 26.73494141 4.21199219 28.03238281 4.22460938 29.36914062 C4.22654297 30.62791016 4.22847656 31.88667969 4.23046875 33.18359375 C4.23457764 34.32368896 4.23868652 35.46378418 4.24291992 36.63842773 C3.61053703 45.38946297 3.61053703 45.38946297 1 48 C-8.56724236 48.10221413 -17.80478246 44.72646594 -26.5625 41.1875 C-30.19607105 39.93226637 -30.59940051 39.83459244 -34 41 C-35.59134766 41.78310547 -35.59134766 41.78310547 -37.21484375 42.58203125 C-41.42990881 44.4355834 -45.06101117 44.02380974 -49.5625 43.6875 C-59.4443467 43.30349304 -64.98508254 46.69269236 -73 52 C-74.97499692 53.04851665 -76.97399164 54.05380229 -79 55 C-80.2375 55.5878125 -80.2375 55.5878125 -81.5 56.1875 C-84.43791779 57.14232328 -86.9300839 57.1427868 -90 57 C-95.77160053 45.9814899 -95.30530138 32.82104221 -95.1875 20.6875 C-95.18685547 19.37587891 -95.18621094 18.06425781 -95.18554688 16.71289062 C-95.14084088 7.14084088 -95.14084088 7.14084088 -94 6 C-82.71135799 5.66230558 -72.24387852 11.18680576 -62.4375 16.1796875 C-59.47475604 17.17676479 -57.98236694 16.83413075 -55 16 C-53.3338645 15.64334287 -51.66719445 15.28917383 -50 14.9375 C-49.175 14.76089844 -48.35 14.58429688 -47.5 14.40234375 C-44.95556686 13.99284904 -42.57243516 13.93109549 -40 14 C-39.67 13.34 -39.34 12.68 -39 12 C-39 12.66 -39 13.32 -39 14 C-38.38125 14.12375 -37.7625 14.2475 -37.125 14.375 C-35 15 -35 15 -33 17 C-32.22398437 16.443125 -31.44796875 15.88625 -30.6484375 15.3125 C-24.75630767 11.1296502 -18.78612121 7.11288008 -12.5625 3.4375 C-10.89380859 2.44556641 -10.89380859 2.44556641 -9.19140625 1.43359375 C-5.7849947 -0.09658133 -3.68692656 -0.47418564 0 0 Z " fill="#44BB57" transform="translate(306,330)"/>
<path d="M0 0 C1.09465989 3.2571587 0.90830516 4.87036219 -0.40625 8.01171875 C-2.40940392 13.62215042 -2.53518871 18.89628507 -2.5 24.8125 C-2.49500488 25.94123535 -2.49000977 27.0699707 -2.48486328 28.23291016 C-2.22115424 41.43473059 0.26251218 54.12092288 3 67 C3.25120605 68.19512207 3.50241211 69.39024414 3.76123047 70.62158203 C5.01242999 76.55381479 6.28972511 82.47979871 7.5859375 88.40234375 C9.06486623 95.21194931 10.38729103 102.04569944 11.61938477 108.90405273 C12.40824179 113.21480401 13.34195673 117.45230273 14.42578125 121.69921875 C16.16633699 128.52784524 17.59364843 135.40842704 19 142.3125 C19.26417725 143.59850098 19.52835449 144.88450195 19.80053711 146.20947266 C21.07556501 152.42725487 22.33392682 158.6478891 23.5625 164.875 C24.79995718 171.12086377 26.14445902 177.34143744 27.5 183.5625 C27.7163208 184.55717285 27.9326416 185.5518457 28.15551758 186.57666016 C29.07324554 190.78765857 29.99514696 194.99717871 30.953125 199.19921875 C32.50934264 206.13354147 33.57987582 212.90135014 34 220 C32.02 220 30.04 220 28 220 C27.81937012 219.04561035 27.63874023 218.0912207 27.45263672 217.10791016 C24.26029224 200.28177991 21.00844149 183.49929079 17.06225586 166.83105469 C15.19784068 158.94222837 13.55251899 151.02946793 12 143.07421875 C10.86563804 137.26753056 9.6513824 131.47799841 8.4375 125.6875 C6.80770552 117.90501579 5.20627557 110.1191104 3.67578125 102.31640625 C3.17028736 99.83568768 2.63620036 97.37019624 2.07714844 94.90161133 C0.99314778 90.03643359 0.03001239 85.15252754 -0.91015625 80.2578125 C-1.26363257 78.43228406 -1.61714935 76.60676344 -1.97070312 74.78125 C-2.51998859 71.93730906 -3.06861676 69.09324351 -3.61645508 66.24902344 C-4.15013996 63.480785 -4.68626054 60.71302674 -5.22265625 57.9453125 C-5.38621109 57.0922049 -5.54976593 56.23909729 -5.71827698 55.36013794 C-5.94872963 54.17277542 -5.94872963 54.17277542 -6.18383789 52.96142578 C-6.31770401 52.26687286 -6.45157013 51.57231995 -6.5894928 50.85671997 C-7.01355746 48.78604427 -7.01355746 48.78604427 -8 46 C-8.23420597 42.12910665 -8.18518385 38.2522272 -8.1875 34.375 C-8.19974609 33.31925781 -8.21199219 32.26351562 -8.22460938 31.17578125 C-8.23971181 23.05067038 -7.52246406 15.60393799 -4 8.1875 C-3.67 7.47980469 -3.34 6.77210938 -3 6.04296875 C-2.01119979 4.02288082 -1.01124325 2.00894305 0 0 Z " fill="#CFCDCB" transform="translate(177,173)"/>
<path d="M0 0 C5.73043935 6.71844614 4.18340869 17.17714979 4.1875 25.4375 C4.19974609 26.73494141 4.21199219 28.03238281 4.22460938 29.36914062 C4.22750977 31.25729492 4.22750977 31.25729492 4.23046875 33.18359375 C4.23457764 34.32368896 4.23868652 35.46378418 4.24291992 36.63842773 C3.61053703 45.38946297 3.61053703 45.38946297 1 48 C-1.00390625 47.94921875 -1.00390625 47.94921875 -3.5625 47.6875 C-4.38878906 47.60886719 -5.21507812 47.53023438 -6.06640625 47.44921875 C-9.7582262 46.88389346 -13.37666034 45.90583492 -17 45 C-17 35.76 -17 26.52 -17 17 C-16.34 17 -15.68 17 -15 17 C-15.33 15.741875 -15.66 14.48375 -16 13.1875 C-16.67603227 10.61012698 -17 8.69787075 -17 6 C-15.30099815 4.98422665 -13.59029549 3.9880102 -11.875 3 C-10.92367188 2.443125 -9.97234375 1.88625 -8.9921875 1.3125 C-5.69332005 -0.1345228 -3.56270177 -0.41556408 0 0 Z " fill="#0CB049" transform="translate(306,330)"/>
<path d="M0 0 C2.14453125 0.05078125 2.14453125 0.05078125 4.8125 0.3125 C6.12154297 0.43044922 6.12154297 0.43044922 7.45703125 0.55078125 C9.98613225 0.99755024 11.78213548 1.73338739 14 3 C13.34 3 12.68 3 12 3 C11.97526018 8.19612278 11.95712108 13.39221118 11.94506836 18.58837891 C11.94004313 20.35563759 11.93322191 22.12289212 11.92456055 23.89013672 C11.91241572 26.43197657 11.90675355 28.9737614 11.90234375 31.515625 C11.89718246 32.30430969 11.89202118 33.09299438 11.88670349 33.90557861 C11.88634068 37.46238969 12.13185048 40.57104726 13 44 C13 44.99 13 45.98 13 47 C13.33 47.66 13.66 48.32 14 49 C10.5980513 51.09350689 7.94727588 51.17942163 4 51 C-1.77160053 39.9814899 -1.30530138 26.82104221 -1.1875 14.6875 C-1.18685547 13.37587891 -1.18621094 12.06425781 -1.18554688 10.71289062 C-1.14084088 1.14084088 -1.14084088 1.14084088 0 0 Z " fill="#8ECF68" transform="translate(212,336)"/>
<path d="M0 0 C3.9492568 0.55105909 7.34920174 1.38935371 11 3 C10.34 4.65 9.68 6.3 9 8 C9.66 8 10.32 8 11 8 C11.19682269 11.43703301 11.38085152 14.87463427 11.5625 18.3125 C11.61857422 19.28896484 11.67464844 20.26542969 11.73242188 21.27148438 C11.78076172 22.20927734 11.82910156 23.14707031 11.87890625 24.11328125 C11.9260376 24.97735596 11.97316895 25.84143066 12.02172852 26.73168945 C12 29 12 29 11 32 C11.66 32.33 12.32 32.66 13 33 C12.835 33.763125 12.67 34.52625 12.5 35.3125 C11.90854604 38.03596236 11.90854604 38.03596236 12 41 C10.75823305 41.70226141 9.50614401 42.38629109 8.25 43.0625 C7.55390625 43.44535156 6.8578125 43.82820313 6.140625 44.22265625 C3.63859372 45.1312406 2.4667645 44.88336837 0 44 C0 43.01 0 42.02 0 41 C-0.16226074 39.92443848 -0.32452148 38.84887695 -0.49169922 37.74072266 C-0.97884217 34.15570619 -1.12925625 30.76311325 -1.1328125 27.1484375 C-1.13474609 25.25351562 -1.13474609 25.25351562 -1.13671875 23.3203125 C-1.13285156 22.01835937 -1.12898437 20.71640625 -1.125 19.375 C-1.12886719 18.0653125 -1.13273438 16.755625 -1.13671875 15.40625 C-1.13542969 14.14554687 -1.13414062 12.88484375 -1.1328125 11.5859375 C-1.13168457 10.4417334 -1.13055664 9.2975293 -1.12939453 8.11865234 C-1.01210025 5.29163895 -0.64706097 2.74824208 0 0 Z " fill="#5CC15D" transform="translate(224,339)"/>
<path d="M0 0 C0.4640625 0.9590625 0.4640625 0.9590625 0.9375 1.9375 C1.8345163 3.93610821 1.8345163 3.93610821 3 5 C3.04063832 6.66617115 3.042721 8.33388095 3 10 C2.34 10 1.68 10 1 10 C1.0721875 10.68964844 1.144375 11.37929688 1.21875 12.08984375 C2.05653225 20.57238904 2.43351752 28.57808457 1 37 C-0.54202616 36.54287762 -2.08360214 36.08423653 -3.625 35.625 C-4.91277344 35.24214844 -4.91277344 35.24214844 -6.2265625 34.8515625 C-9.16794719 33.94843312 -12.08451604 32.98322773 -15 32 C-14.98259766 30.7315625 -14.98259766 30.7315625 -14.96484375 29.4375 C-14.95582031 28.303125 -14.94679688 27.16875 -14.9375 26 C-14.92589844 24.88625 -14.91429687 23.7725 -14.90234375 22.625 C-15.00874423 18.67541436 -15.45536212 14.91110035 -16 11 C-13.70955906 9.35243739 -11.41771923 7.70688669 -9.125 6.0625 C-8.14853516 5.35963867 -8.14853516 5.35963867 -7.15234375 4.64257812 C-2.2265625 1.11328125 -2.2265625 1.11328125 0 0 Z " fill="#4DBC57" transform="translate(288,337)"/>
<path d="M0 0 C3.03478132 1.49176868 5.10735961 3.18971579 7 6 C8.05648521 10.36374328 7.49114759 13.84580316 5.75 17.9375 C3.43658568 20.66402402 1.34460874 21.77148868 -2.18359375 22.37109375 C-6.65605835 22.5028648 -8.39444866 22.49201046 -12 19.5625 C-12.66 18.716875 -13.32 17.87125 -14 17 C-14.33 16.67 -14.66 16.34 -15 16 C-15.55720584 12.21896039 -15.84003776 8.52021759 -13.953125 5.10546875 C-9.93469374 0.24789449 -6.22031095 -1.13908746 0 0 Z " fill="#0C72BD" transform="translate(215,209)"/>
<path d="M0 0 C4.85963179 0.60745397 8.7405518 2.72758967 13 5 C12.67 5.66 12.34 6.32 12 7 C11.91599261 8.5475426 11.89272599 10.09864628 11.90234375 11.6484375 C11.90556641 12.57140625 11.90878906 13.494375 11.91210938 14.4453125 C11.92048828 15.41210938 11.92886719 16.37890625 11.9375 17.375 C11.94201172 18.3340625 11.94652344 19.293125 11.95117188 20.28125 C11.95989537 22.07081324 11.97066931 23.86036847 11.98413086 25.64990234 C11.99842369 27.76655992 12 29.88329417 12 32 C10.71086513 32.67154933 9.41859796 33.33708859 8.125 34 C7.40570313 34.37125 6.68640625 34.7425 5.9453125 35.125 C4 36 4 36 2 36 C0.77600548 29.35958878 0.88772247 22.79778303 0.9375 16.0625 C0.94201172 14.90169922 0.94652344 13.74089844 0.95117188 12.54492188 C0.96289353 9.69656066 0.9793024 6.84830778 1 4 C0.34 4 -0.32 4 -1 4 C-0.67 2.68 -0.34 1.36 0 0 Z " fill="#21B64E" transform="translate(234,343)"/>
<path d="M0 0 C0.66 0.33 1.32 0.66 2 1 C1.67 1.66 1.34 2.32 1 3 C0.91294854 5.98970289 0.88449855 8.95584955 0.90234375 11.9453125 C0.9037587 12.8303244 0.90517365 13.7153363 0.90663147 14.62716675 C0.9122386 17.45981191 0.92479229 20.29237864 0.9375 23.125 C0.94251408 25.04296761 0.94707715 26.96093646 0.95117188 28.87890625 C0.96221034 33.58596782 0.97947975 38.2929706 1 43 C-2.28696233 43.79953138 -3.71023192 44.09658936 -7 43 C-7 33.76 -7 24.52 -7 15 C-6.34 15 -5.68 15 -5 15 C-5.33 13.741875 -5.66 12.48375 -6 11.1875 C-6.67603227 8.61012698 -7 6.69787075 -7 4 C-1.7265625 0.77734375 -1.7265625 0.77734375 0 0 Z " fill="#20B54D" transform="translate(296,332)"/>
<path d="M0 0 C3.875 0.5625 3.875 0.5625 5.875 2.0625 C6.37 2.805 6.37 2.805 6.875 3.5625 C4.895 4.5525 4.895 4.5525 2.875 5.5625 C3.205 6.5525 3.535 7.5425 3.875 8.5625 C4.865 8.8925 5.855 9.2225 6.875 9.5625 C7.205 7.9125 7.535 6.2625 7.875 4.5625 C8.535 4.8925 9.195 5.2225 9.875 5.5625 C10.36529622 12.79436925 10.36529622 12.79436925 8 16.5 C5.27993999 19.14005824 4.37285154 19.50613945 0.5625 19.9375 C-4.03098187 19.47036625 -5.23947985 18.04209782 -8.125 14.5625 C-8.455 14.2325 -8.785 13.9025 -9.125 13.5625 C-9.64497019 9.14275336 -9.38574521 7.01065582 -7.125 3.125 C-4.14293937 0.57782321 -3.63818412 0.14767537 0 0 Z " fill="#0E72BD" transform="translate(287.125,203.4375)"/>
<path d="M0 0 C1.4540625 0.0309375 1.4540625 0.0309375 2.9375 0.0625 C1.9475 0.5575 1.9475 0.5575 0.9375 1.0625 C0.90854775 4.35414829 0.8907177 7.64576399 0.875 10.9375 C0.86662109 11.87464844 0.85824219 12.81179688 0.84960938 13.77734375 C0.84477539 15.12119141 0.84477539 15.12119141 0.83984375 16.4921875 C0.83198853 17.73331299 0.83198853 17.73331299 0.82397461 18.99951172 C0.80397862 21.12661757 0.80397862 21.12661757 1.9375 23.0625 C1.67572936 25.05850116 1.41170114 27.05430205 1.125 29.046875 C0.89340243 31.53654883 1.43703237 33.62272028 1.9375 36.0625 C1.66878549 38.40415499 1.34711596 40.74134289 0.9375 43.0625 C-0.5475 43.5575 -0.5475 43.5575 -2.0625 44.0625 C-3.7468619 34.1958611 -4.3472129 24.76292829 -4.25 14.75 C-4.24935547 13.43837891 -4.24871094 12.12675781 -4.24804688 10.77539062 C-4.19812086 0.08567594 -4.19812086 0.08567594 0 0 Z " fill="#A6D572" transform="translate(215.0625,335.9375)"/>
<path d="M0 0 C1.98 0 3.96 0 6 0 C5.01 0.495 5.01 0.495 4 1 C3.97526018 6.19612278 3.95712108 11.39221118 3.94506836 16.58837891 C3.94004313 18.35563759 3.93322191 20.12289212 3.92456055 21.89013672 C3.91241572 24.43197657 3.90675355 26.9737614 3.90234375 29.515625 C3.89718246 30.30430969 3.89202118 31.09299438 3.88670349 31.90557861 C3.88634068 35.46238969 4.13185048 38.57104726 5 42 C5 42.99 5 43.98 5 45 C5.33 45.66 5.66 46.32 6 47 C2.535 47.495 2.535 47.495 -1 48 C-0.91621094 47.443125 -0.83242187 46.88625 -0.74609375 46.3125 C-0.13148272 41.70680725 -0.06811121 37.80810908 -0.8125 33.18359375 C-1.12390442 29.55702982 -0.60315451 26.01859713 -0.15625 22.41796875 C0.16169097 19.85716254 0.16169097 19.85716254 -1 17 C-1.34184558 11.2489508 -0.98544163 5.66628936 0 0 Z " fill="#79C964" transform="translate(220,338)"/>
<path d="M0 0 C0.66 0.33 1.32 0.66 2 1 C1.34 2.32 0.68 3.64 0 5 C0.66 5 1.32 5 2 5 C2.19682269 8.43703301 2.38085152 11.87463427 2.5625 15.3125 C2.61857422 16.28896484 2.67464844 17.26542969 2.73242188 18.27148438 C2.78076172 19.20927734 2.82910156 20.14707031 2.87890625 21.11328125 C2.9260376 21.97735596 2.97316895 22.84143066 3.02172852 23.73168945 C3 26 3 26 2 29 C2.66 29.33 3.32 29.66 4 30 C3.835 30.763125 3.67 31.52625 3.5 32.3125 C2.90854604 35.03596236 2.90854604 35.03596236 3 38 C-2.75 41 -2.75 41 -5 41 C-5 35.66666667 -5 30.33333333 -5 25 C-4.34 24.67 -3.68 24.34 -3 24 C-0.92844811 17.20991326 -0.85356647 10.91572985 -1.02734375 3.84375 C-1 1 -1 1 0 0 Z " fill="#45BC55" transform="translate(233,342)"/>
<path d="M0 0 C0.66 0.33 1.32 0.66 2 1 C1.34 1.66 0.68 2.32 0 3 C-0.08595128 6.68469391 0.00535833 10.31613242 0.16601562 13.99609375 C0.30357672 19.71673801 -0.6997564 23.75088015 -3 29 C-4.65 28.67 -6.3 28.34 -8 28 C-7.98259766 26.7315625 -7.98259766 26.7315625 -7.96484375 25.4375 C-7.95582031 24.303125 -7.94679688 23.16875 -7.9375 22 C-7.92460937 20.81148438 -7.91171875 19.62296875 -7.8984375 18.3984375 C-7.98362031 15.54808969 -8.34167415 13.34692446 -9.0625 10.625 C-9 7 -9 7 -7.0625 4.9609375 C-4.77472307 3.16646247 -2.46594543 1.53821158 0 0 Z " fill="#8BCE69" transform="translate(281,341)"/>
<path d="M0 0 C0.66 0.33 1.32 0.66 2 1 C1.01 3.31 0.02 5.62 -1 8 C-1.66 8 -2.32 8 -3 8 C-2.91621094 8.56847656 -2.83242188 9.13695312 -2.74609375 9.72265625 C-1.93973989 15.83665579 -2.0239071 21.07172131 -4 27 C-4.13361382 30.54076635 -4.04235028 33.75530951 -3.4375 37.25 C-3 40 -3 40 -4 43 C-4.99 43 -5.98 43 -7 43 C-7 33.76 -7 24.52 -7 15 C-6.34 15 -5.68 15 -5 15 C-5.33 13.741875 -5.66 12.48375 -6 11.1875 C-6.67603227 8.61012698 -7 6.69787075 -7 4 C-1.7265625 0.77734375 -1.7265625 0.77734375 0 0 Z " fill="#36B64F" transform="translate(296,332)"/>
<path d="M0 0 C1.98 0.66 3.96 1.32 6 2 C5.67 2.66 5.34 3.32 5 4 C4.91599261 5.5475426 4.89272599 7.09864628 4.90234375 8.6484375 C4.90556641 9.57140625 4.90878906 10.494375 4.91210938 11.4453125 C4.92048828 12.41210938 4.92886719 13.37890625 4.9375 14.375 C4.94201172 15.3340625 4.94652344 16.293125 4.95117188 17.28125 C4.95989537 19.07081324 4.97066931 20.86036847 4.98413086 22.64990234 C4.99842369 24.76655992 5 26.88329417 5 29 C3.35 29.33 1.7 29.66 0 30 C0 20.1 0 10.2 0 0 Z " fill="#0BB24A" transform="translate(241,346)"/>
<path d="M0 0 C2.24499004 1.75853859 2.94806973 2.60333861 3.32470703 5.48022461 C3.30263184 6.44452393 3.28055664 7.40882324 3.2578125 8.40234375 C3.24363281 9.45744141 3.22945313 10.51253906 3.21484375 11.59960938 C3.18519531 12.70111328 3.15554688 13.80261719 3.125 14.9375 C3.08156269 17.11319831 3.04232886 19.28898563 3.0078125 21.46484375 C2.98348145 22.430271 2.95915039 23.39569824 2.93408203 24.39038086 C2.99437217 26.77720041 3.31152705 28.72468086 4 31 C0.5625 30.1875 0.5625 30.1875 -3 29 C-4 26 -4 26 -3.0625 22.25 C-1.64341604 16.56426625 -1.93900923 10.96655569 -2.125 5.16015625 C-2 2 -2 2 0 0 Z " fill="#68C35F" transform="translate(282,342)"/>
<path d="M0 0 C30.446068 -1.09372965 30.446068 -1.09372965 44 5 C44.495 5.99 44.495 5.99 45 7 C43.84628906 6.79503906 42.69257813 6.59007812 41.50390625 6.37890625 C27.68388102 4.05306209 13.99924104 3.31282255 0 3 C0 2.01 0 1.02 0 0 Z " fill="#D5BDBC" transform="translate(178,141)"/>
<path d="M0 0 C0.95648438 -0.02578125 1.91296875 -0.0515625 2.8984375 -0.078125 C6.00392147 0.29560086 7.33036066 1.18373709 9.625 3.25 C8.3565625 3.25386719 8.3565625 3.25386719 7.0625 3.2578125 C0.17700958 3.49254513 -4.63088682 4.00907819 -9.91796875 8.6171875 C-11.74753676 10.66748087 -12.74552558 12.57473373 -13.375 15.25 C-14.035 14.92 -14.695 14.59 -15.375 14.25 C-15.30532569 10.76628457 -15.18633452 8.17141508 -12.8203125 5.484375 C-8.47547159 1.77052758 -5.80067802 0.09330849 0 0 Z " fill="#3D96CD" transform="translate(203.375,182.75)"/>
<path d="M0 0 C1.11417492 3.29795777 0.88517711 5.03597031 -0.375 8.25 C-1.53069394 11.38540284 -2.20083079 14.10592578 -2.4375 17.4375 C-2.623125 18.613125 -2.80875 19.78875 -3 21 C-4.98 21.99 -4.98 21.99 -7 23 C-7 30.59 -7 38.18 -7 46 C-7.33 46 -7.66 46 -8 46 C-8.05872928 42.1875662 -8.09383916 38.37525094 -8.125 34.5625 C-8.14175781 33.49322266 -8.15851563 32.42394531 -8.17578125 31.32226562 C-8.22592902 23.12310577 -7.55549019 15.67347349 -4 8.1875 C-3.67 7.47980469 -3.34 6.77210938 -3 6.04296875 C-2.01119979 4.02288082 -1.01124325 2.00894305 0 0 Z " fill="#D9B9B7" transform="translate(177,173)"/>
<path d="M0 0 C0.66 0.33 1.32 0.66 2 1 C1.34 1.66 0.68 2.32 0 3 C-0.11930198 6.74309952 -0.04253157 10.43152122 0.078125 14.171875 C0.17124205 18.88980575 -0.16483242 22.55545353 -2 27 C-4.56780471 23.1584024 -4.22688882 19.1860825 -4.125 14.75 C-4.11597656 14.00492187 -4.10695313 13.25984375 -4.09765625 12.4921875 C-4.07418358 10.66131941 -4.03831525 8.83061762 -4 7 C-5.97536745 7.34786708 -5.97536745 7.34786708 -8 8 C-8.33 8.66 -8.66 9.32 -9 10 C-8.62669176 7.27425729 -8.20805399 6.19177915 -6.15234375 4.296875 C-5.42144531 3.78640625 -4.69054687 3.2759375 -3.9375 2.75 C-3.20402344 2.22921875 -2.47054688 1.7084375 -1.71484375 1.171875 C-1.14894531 0.78515625 -0.58304687 0.3984375 0 0 Z " fill="#84C064" transform="translate(281,341)"/>
<path d="M0 0 C3.24006063 1.35002526 4.51973759 2.19956265 6.3125 5.1875 C6.539375 5.785625 6.76625 6.38375 7 7 C6.3090625 6.67644531 5.618125 6.35289062 4.90625 6.01953125 C1.61447053 4.86475378 -1.01763805 4.69970454 -4.5 4.6875 C-5.6034375 4.67074219 -6.706875 4.65398437 -7.84375 4.63671875 C-11.29823407 5.03432645 -13.18673608 6.01077048 -16 8 C-13.29357126 -0.34482195 -7.99120653 -0.95842671 0 0 Z " fill="#489BCF" transform="translate(286,179)"/>
<path d="M0 0 C0.66 0 1.32 0 2 0 C1.67 1.65 1.34 3.3 1 5 C1.66 5.33 2.32 5.66 3 6 C2.835 6.763125 2.67 7.52625 2.5 8.3125 C1.90854604 11.03596236 1.90854604 11.03596236 2 14 C1.01 14 0.02 14 -1 14 C-1.02685938 11.85423363 -1.04633088 9.70837355 -1.0625 7.5625 C-1.07410156 6.36753906 -1.08570313 5.17257812 -1.09765625 3.94140625 C-1 1 -1 1 0 0 Z " fill="#37B851" transform="translate(234,366)"/>
<path d="M0 0 C1.65 0.33 3.3 0.66 5 1 C4.67 2.65 4.34 4.3 4 6 C2.35 5.67 0.7 5.34 -1 5 C-0.67 3.35 -0.34 1.7 0 0 Z " fill="#E2E9EF" transform="translate(214,213)"/>
<path d="M0 0 C1.2077558 3.62326739 0.54311128 4.64146369 -1 8 C-2.32 7.67 -3.64 7.34 -5 7 C-5 3 -5 3 -3.625 1.25 C-2 0 -2 0 0 0 Z " fill="#C5D6E7" transform="translate(295,205)"/>
<path d="M0 0 C2 3 2 3 1.7578125 5.26171875 C1.54898437 6.06222656 1.34015625 6.86273438 1.125 7.6875 C0.92132813 8.49574219 0.71765625 9.30398438 0.5078125 10.13671875 C0.25644531 11.05904297 0.25644531 11.05904297 0 12 C-2.12999997 8.20960634 -2.16702456 5.34263862 -2 1 C-1.34 0.67 -0.68 0.34 0 0 Z " fill="#79C964" transform="translate(279,356)"/>
<path d="M0 0 C2 1 2 1 2.66796875 2.7421875 C2.92513672 3.79792969 2.92513672 3.79792969 3.1875 4.875 C3.36667969 5.57367188 3.54585937 6.27234375 3.73046875 6.9921875 C4 9 4 9 3 12 C2.34 12 1.68 12 1 12 C-0.3271261 8.0186217 -0.06915913 4.14954773 0 0 Z " fill="#A8D67A" transform="translate(212,368)"/>
<path d="M0 0 C2.62187494 1.04874998 3.79371361 1.64931313 5.25 4.125 C5.4975 4.74375 5.745 5.3625 6 6 C5.360625 5.690625 4.72125 5.38125 4.0625 5.0625 C0.07950896 3.68064597 -3.81650849 3.3463457 -8 3 C-8 2.67 -8 2.34 -8 2 C-6.865625 1.855625 -5.73125 1.71125 -4.5625 1.5625 C-1.19222799 1.38828522 -1.19222799 1.38828522 0 0 Z " fill="#589FCE" transform="translate(287,180)"/>
<path d="M0 0 C1.65 0.33 3.3 0.66 5 1 C3.25 5.875 3.25 5.875 1 7 C1 6.01 1 5.02 1 4 C0.34 4 -0.32 4 -1 4 C-0.67 2.68 -0.34 1.36 0 0 Z " fill="#30B74F" transform="translate(234,343)"/>
<path d="M0 0 C0.66 0.33 1.32 0.66 2 1 C1.01 3.31 0.02 5.62 -1 8 C-1.433125 7.525625 -1.86625 7.05125 -2.3125 6.5625 C-4.02309613 4.76313043 -4.02309613 4.76313043 -7 4 C-1.7265625 0.77734375 -1.7265625 0.77734375 0 0 Z " fill="#41AC4E" transform="translate(296,332)"/>
<path d="M0 0 C1.32 0 2.64 0 4 0 C2.87548273 2.9719385 1.77706209 5.33440687 0 8 C-0.33 7.67 -0.66 7.34 -1 7 C-0.71269945 4.66055264 -0.38063221 2.3260857 0 0 Z " fill="#4F9FD1" transform="translate(189,190)"/>
<path d="M0 0 C3.125 -0.1875 3.125 -0.1875 6 0 C6 0.99 6 1.98 6 3 C3.36 3 0.72 3 -2 3 C-1.34 2.01 -0.68 1.02 0 0 Z " fill="#1F8BCC" transform="translate(280,179)"/>
<path d="M0 0 C0.33 1.32 0.66 2.64 1 4 C-0.98 4.99 -0.98 4.99 -3 6 C-3.99 5.34 -4.98 4.68 -6 4 C-2.25 0 -2.25 0 0 0 Z " fill="#2D8FCD" transform="translate(196,185)"/>
<path d="M0 0 C5.75 1.875 5.75 1.875 8 3 C8 3.66 8 4.32 8 5 C5.03 4.01 2.06 3.02 -1 2 C-0.67 1.34 -0.34 0.68 0 0 Z " fill="#DABFBC" transform="translate(181,125)"/>
<path d="M0 0 C1.32 0 2.64 0 4 0 C3.67 1.32 3.34 2.64 3 4 C4.65 4 6.3 4 8 4 C8 4.33 8 4.66 8 5 C6.02 5 4.04 5 2 5 C1.34 3.35 0.68 1.7 0 0 Z " fill="#9CD278" transform="translate(214,382)"/>
</svg>
