<?xml version="1.0" encoding="UTF-8"?>
<svg width="32" height="32" fill="none" xmlns="http://www.w3.org/2000/svg" class="eHmVgpFRodaWaS9Ka39P"><path d="M6.412 22.944c.622.578.744 1.552.19 2.195l-1.586 1.843c-.878 1.02-.02 2.561 1.306 2.328 4.499-.792 11.697-2.204 14.704-3.595 4.873-1.78 8.308-6.072 8.308-11.085 0-6.607-5.97-11.963-13.334-11.963-7.363 0-13.333 5.356-13.333 11.963 0 3.23 1.427 6.162 3.745 8.314Z" fill="#fff"></path><path d="M6.412 22.944c.622.578.744 1.552.19 2.195l-1.586 1.843c-.878 1.02-.02 2.561 1.306 2.328 4.499-.792 11.697-2.204 14.704-3.595 4.873-1.78 8.308-6.072 8.308-11.085 0-6.607-5.97-11.963-13.334-11.963-7.363 0-13.333 5.356-13.333 11.963 0 3.23 1.427 6.162 3.745 8.314Z" fill="url(#ai-chat-gradient-color-32_svg__a)" fill-opacity="0.77"></path><path d="M15.378 8.402c.162-.649 1.084-.649 1.246 0l.353 1.413a5.354 5.354 0 0 0 3.896 3.895l1.413.353c.648.163.648 1.085 0 1.247l-1.413.353a5.354 5.354 0 0 0-3.896 3.895l-.353 1.413c-.162.65-1.084.65-1.246 0l-.354-1.413a5.354 5.354 0 0 0-3.895-3.895l-1.413-.353c-.649-.162-.649-1.084 0-1.247l1.413-.353a5.354 5.354 0 0 0 3.895-3.895l.354-1.413Z" fill="#fff"></path><path d="M27.667 14.63c0 4.203-2.888 7.94-7.214 9.52l-.065.024-.063.029c-1.326.613-3.718 1.282-6.463 1.91-2.426.554-5.01 1.05-7.13 1.43l1.133-1.316.056-.067c1.135-1.391.8-3.296-.32-4.385l-.055-.052c-1.983-1.842-3.175-4.295-3.212-6.965v-.127C4.334 9.108 9.383 4.332 16 4.332V2.667h-.172C8.601 2.75 2.76 7.992 2.668 14.477l-.001.154c0 3.18 1.382 6.07 3.637 8.213l.108.101c.603.56.736 1.492.24 2.134l-.05.061-1.586 1.843c-.878 1.02-.02 2.56 1.306 2.328 4.498-.792 11.696-2.204 14.703-3.595 4.873-1.78 8.309-6.072 8.309-11.085l-.002-.154C29.24 7.94 23.307 2.666 16 2.666v1.667c6.566 0 11.588 4.702 11.666 10.168l.001.13Z" fill="url(#ai-chat-gradient-color-32_svg__b)"></path><defs><linearGradient id="ai-chat-gradient-color-32_svg__a" x1="2.667" y1="2.667" x2="29.403" y2="29.263" gradientUnits="userSpaceOnUse"><stop stop-color="#A591DC"></stop><stop offset="1" stop-color="#3969EF"></stop></linearGradient><linearGradient id="ai-chat-gradient-color-32_svg__b" x1="2.667" y1="2.667" x2="29.334" y2="29.333" gradientUnits="userSpaceOnUse"><stop stop-color="#A591DC"></stop><stop offset="1" stop-color="#3969EF"></stop></linearGradient></defs></svg>
